<svg width="14" height="14" viewBox="0 0 14 14" fill="none" xmlns="http://www.w3.org/2000/svg">
<g clip-path="url(#clip0_1183_6)">
<path d="M13.3165 3.24249e-05C13.4517 6.67572e-06 13.5839 0.0400848 13.6964 0.115197C13.8088 0.19031 13.8965 0.297082 13.9482 0.422009C14 0.546934 14.0135 0.684402 13.9871 0.817023C13.9607 0.949644 13.8956 1.07146 13.8 1.16706L1.16715 13.7999C1.03893 13.9281 0.865033 14.0001 0.683709 14.0001C0.502385 14.0001 0.328487 13.9281 0.200272 13.7999C0.0720568 13.6717 2.47955e-05 13.4978 2.47955e-05 13.3164C2.47955e-05 13.1351 0.0720568 12.9612 0.200272 12.833L12.8331 0.200189C12.8965 0.13663 12.9719 0.0862284 13.0548 0.0518799C13.1378 0.0175304 13.2267 -8.96454e-05 13.3165 3.24249e-05Z" fill="#1D1D1D"/>
<path d="M0.683686 3.24249e-05C0.773479 -8.96454e-05 0.862411 0.0175304 0.945374 0.0518799C1.02834 0.0862284 1.1037 0.13663 1.16712 0.200189L13.7999 12.833C13.9282 12.9612 14.0002 13.1351 14.0002 13.3164C14.0002 13.4978 13.9282 13.6717 13.7999 13.7999C13.6717 13.9281 13.4978 14.0001 13.3165 14.0001C13.1352 14.0001 12.9613 13.9281 12.8331 13.7999L0.200249 1.16706C0.104621 1.07146 0.0394936 0.949644 0.0131063 0.817023C-0.0132809 0.684402 0.000257492 0.546934 0.0520077 0.422009C0.103758 0.297082 0.191395 0.19031 0.303835 0.115197C0.416275 0.0400848 0.548465 6.67572e-06 0.683686 3.24249e-05Z" fill="#1D1D1D"/>
</g>
<defs>
<clipPath id="clip0_1183_6">
<rect width="14" height="14" fill="white" transform="matrix(-1 0 0 -1 14 14)"/>
</clipPath>
</defs>
</svg>
