<svg width="13" height="17" viewBox="0 0 13 17" fill="none" xmlns="http://www.w3.org/2000/svg">
<path d="M6.5 0C3.37545 0 0.833323 2.54213 0.833323 5.66668C0.833323 6.60467 1.06784 7.53469 1.51365 8.35958L6.19012 16.8174C6.25237 16.9301 6.37101 17 6.5 17C6.62899 17 6.74763 16.9301 6.80989 16.8174L11.4881 8.35679C11.9322 7.53469 12.1667 6.60463 12.1667 5.66664C12.1667 2.54213 9.62455 0 6.5 0ZM6.5 8.5C4.93773 8.5 3.66668 7.22895 3.66668 5.66668C3.66668 4.1044 4.93773 2.83336 6.5 2.83336C8.06227 2.83336 9.33332 4.1044 9.33332 5.66668C9.33332 7.22895 8.06227 8.5 6.5 8.5Z" fill="black"/>
</svg>
